<?xml version="1.0" standalone="no"?>
<!DOCTYPE svg PUBLIC "-//W3C//DTD SVG 20010904//EN"
 "http://www.w3.org/TR/2001/REC-SVG-20010904/DTD/svg10.dtd">
<svg version="1.0" xmlns="http://www.w3.org/2000/svg"
 width="1600.000000pt" height="372.000000pt" viewBox="0 0 1600.000000 372.000000"
 preserveAspectRatio="xMidYMid meet">

<g transform="translate(0.000000,372.000000) scale(0.100000,-0.100000)"
fill="#000000" stroke="none">
<path d="M1097 2853 c-12 -11 -8 -1403 3 -1469 18 -100 65 -216 122 -297 17
-24 23 -26 36 -15 14 10 15 10 5 -2 -13 -14 -1 -50 18 -50 6 0 7 5 3 12 -4 7
-3 8 5 4 6 -4 9 -12 5 -17 -8 -13 16 -40 29 -32 5 3 7 1 3 -5 -3 -6 8 -21 26
-33 18 -13 42 -32 53 -42 36 -33 178 -95 259 -112 61 -14 106 -16 200 -12 137
6 166 12 167 36 0 10 2 11 6 4 2 -7 9 -13 14 -13 20 0 139 61 139 71 0 6 4 8
10 4 5 -3 18 3 29 14 11 11 21 18 23 16 2 -3 35 25 72 60 44 42 65 69 60 77
-4 7 -4 10 1 6 11 -10 35 10 35 29 0 8 -4 12 -8 9 -4 -2 -8 4 -8 15 0 18 2 18
12 5 16 -22 27 -20 21 3 -3 12 0 18 7 15 6 -2 19 9 29 26 10 16 15 30 11 30
-3 0 -1 7 6 15 7 8 9 15 4 15 -5 0 -4 4 2 8 41 26 73 241 56 370 -13 98 -30
165 -40 158 -4 -2 -8 7 -8 21 -1 13 -10 33 -20 44 -9 10 -14 19 -10 19 9 0
-19 53 -46 84 -73 86 -117 128 -129 121 -7 -5 -10 -4 -5 3 7 12 -102 94 -115
86 -5 -3 -9 -1 -9 4 0 13 -78 44 -91 37 -5 -4 -9 -1 -9 6 0 7 -3 9 -7 6 -3 -4
-13 -1 -21 6 -12 10 -16 9 -20 -1 -3 -10 -7 -9 -16 3 -9 12 -34 18 -94 22
l-82 6 0 -115 0 -115 31 -7 c17 -3 43 -6 58 -6 14 -1 49 -9 78 -19 38 -13 55
-15 63 -7 8 8 11 7 8 -3 -2 -7 3 -16 11 -19 8 -2 11 0 8 5 -3 5 0 10 7 10 7 0
11 -8 9 -17 -5 -19 70 -76 86 -65 6 3 8 0 5 -8 -3 -9 4 -22 18 -31 12 -9 19
-16 14 -16 -5 0 -2 -8 6 -17 28 -32 67 -117 79 -173 14 -68 6 -254 -12 -270
-3 -3 -13 -25 -23 -49 -10 -25 -26 -57 -37 -73 -11 -15 -17 -32 -14 -38 3 -5
0 -7 -8 -4 -17 6 -41 -21 -32 -35 3 -7 0 -8 -9 -5 -9 3 -20 -3 -28 -15 -7 -12
-17 -21 -22 -21 -5 0 -17 -6 -25 -14 -9 -8 -36 -25 -61 -38 -25 -14 -44 -30
-42 -37 1 -7 -2 -10 -8 -6 -6 3 -8 10 -6 14 3 4 -30 0 -71 -8 -62 -12 -90 -12
-152 -3 -107 17 -102 15 -149 40 -24 12 -48 19 -54 16 -7 -4 -8 -2 -4 4 4 6
-4 16 -16 23 -13 7 -34 25 -47 40 -23 28 -50 41 -35 17 5 -7 3 -8 -5 -4 -7 5
-10 10 -7 13 10 10 -15 44 -27 37 -7 -4 -9 -4 -5 1 10 11 -11 47 -23 40 -5 -4
-9 -3 -8 2 3 20 -2 44 -9 39 -4 -2 -8 3 -9 12 -1 9 -10 42 -19 72 -16 50 -18
119 -22 773 l-3 717 -108 0 c-59 0 -111 -3 -114 -7z m1058 -713 c3 -6 -1 -7
-9 -4 -18 7 -21 14 -7 14 6 0 13 -4 16 -10z m275 -235 c0 -12 -19 -12 -23 0
-4 9 -1 12 9 8 7 -3 14 -7 14 -8z m-145 -114 c3 -5 2 -12 -3 -15 -5 -3 -9 1
-9 9 0 17 3 19 12 6z m28 -96 c-3 -9 -8 -14 -10 -11 -3 3 -2 9 2 15 9 16 15
13 8 -4z m-1140 -390 c-3 -9 -8 -14 -10 -11 -3 3 -2 9 2 15 9 16 15 13 8 -4z
m1174 -258 c1 -11 1 -18 0 -16 -2 2 -8 11 -15 20 -9 12 -9 16 1 16 7 0 14 -9
14 -20z m-307 -37 c0 -5 -5 -10 -11 -10 -5 0 -7 5 -4 10 3 6 8 10 11 10 2 0 4
-4 4 -10z m-681 -23 c8 -10 7 -14 -2 -14 -8 0 -14 6 -14 14 0 7 1 13 2 13 2 0
8 -6 14 -13z m846 -77 c-3 -5 -12 -10 -18 -10 -7 0 -6 4 3 10 19 12 23 12 15
0z m-725 -4 c0 -2 -7 -7 -16 -10 -8 -3 -12 -2 -9 4 6 10 25 14 25 6z m685 -26
c-3 -5 -12 -10 -18 -10 -7 0 -6 4 3 10 19 12 23 12 15 0z"/>
<path d="M6980 2150 c0 -771 1 -787 57 -926 31 -79 80 -157 93 -149 5 3 7 0 5
-7 -6 -14 29 -58 45 -58 6 0 9 -4 8 -9 -3 -9 81 -91 94 -91 4 0 13 -6 20 -13
25 -24 74 -51 63 -36 -5 8 -1 6 9 -6 13 -14 20 -16 23 -7 3 8 10 6 21 -7 22
-26 108 -50 203 -58 l77 -6 1 111 c1 61 -2 113 -7 116 -5 3 -31 8 -57 11 -26
3 -72 15 -102 27 -46 17 -57 18 -65 7 -8 -11 -9 -10 -5 3 8 23 -35 51 -53 35
-10 -9 -11 -9 -6 1 9 16 -12 44 -27 35 -5 -3 -7 -2 -4 4 4 5 -5 19 -18 31 -13
12 -36 39 -51 62 -15 22 -32 40 -38 40 -6 0 -4 -5 4 -10 8 -5 10 -10 4 -10
-17 0 -25 12 -15 24 6 7 -1 40 -17 86 -25 72 -26 84 -30 343 -4 260 1 335 17
309 6 -9 65 -12 237 -10 l229 3 0 115 0 115 -242 3 -243 2 0 315 0 315 -115 0
-115 0 0 -710z m135 -950 c3 -6 -1 -7 -9 -4 -18 7 -21 14 -7 14 6 0 13 -4 16
-10z m62 -142 c-2 -7 3 -19 12 -26 14 -11 13 -12 -6 -2 -14 6 -20 16 -17 25 7
18 17 20 11 3z m83 -74 c0 -8 -19 -13 -24 -6 -3 5 1 9 9 9 8 0 15 -2 15 -3z
m100 -88 c0 -2 -7 -7 -16 -10 -8 -3 -12 -2 -9 4 6 10 25 14 25 6z"/>
<path d="M14193 2138 c2 -398 6 -736 9 -753 3 -16 6 -38 6 -48 1 -10 6 -16 11
-12 5 3 13 0 17 -6 4 -8 3 -9 -4 -5 -21 13 -13 -26 22 -105 40 -93 74 -142 92
-135 7 3 16 0 20 -6 4 -7 9 -6 15 3 5 8 9 9 9 3 0 -6 -8 -18 -17 -25 -10 -8
-14 -9 -10 -2 4 6 3 14 -2 17 -26 16 -16 -16 15 -53 26 -30 41 -40 54 -36 10
3 21 1 25 -4 4 -7 -1 -8 -12 -4 -17 6 -17 5 1 -15 10 -12 23 -19 29 -15 5 3 7
1 3 -5 -6 -9 42 -52 59 -52 4 0 19 -9 34 -20 45 -32 176 -70 261 -77 l80 -6 0
116 0 115 -49 7 c-28 4 -60 4 -73 0 -15 -4 -18 -3 -10 3 9 6 0 12 -30 21 -24
7 -60 24 -81 37 -21 14 -43 22 -50 18 -7 -4 -9 -4 -5 0 4 5 -12 29 -35 54 -74
80 -82 89 -85 103 -2 8 -7 16 -10 19 -4 3 -8 12 -10 20 -2 8 -8 17 -13 18 -5
2 -7 7 -5 11 3 4 -2 30 -11 57 -13 38 -18 110 -22 334 l-6 285 245 0 245 0 0
115 0 115 -242 3 -243 2 0 315 0 315 -115 0 -115 0 3 -722z m231 -814 c3 -8 2
-12 -4 -9 -6 3 -10 10 -10 16 0 14 7 11 14 -7z m256 -288 c0 -2 -7 -7 -16 -10
-8 -3 -12 -2 -9 4 6 10 25 14 25 6z m-285 -24 c-3 -3 -11 0 -18 7 -9 10 -8 11
6 5 10 -3 15 -9 12 -12z m220 -142 c3 -6 -1 -7 -9 -4 -18 7 -21 14 -7 14 6 0
13 -4 16 -10z"/>
<path d="M4605 2238 c-22 -5 -48 -9 -58 -9 -9 0 -15 -4 -12 -9 3 -4 -3 -6 -13
-3 -20 5 -155 -55 -196 -88 -14 -11 -23 -25 -20 -31 5 -7 2 -8 -6 -3 -7 4 -16
2 -21 -6 -4 -8 -12 -14 -16 -14 -5 0 -19 -10 -32 -22 -19 -17 -21 -25 -13 -36
9 -11 7 -19 -11 -35 l-23 -22 -1 23 c-2 14 1 17 6 9 6 -10 10 -10 20 2 9 11 9
16 0 22 -15 9 -52 -33 -42 -49 3 -5 1 -7 -4 -4 -6 4 -16 0 -23 -8 -10 -13 -9
-19 6 -38 l19 -22 -21 18 c-21 18 -22 17 -54 -39 -18 -32 -33 -63 -34 -68 -1
-6 -7 -20 -13 -32 -28 -49 -46 -187 -40 -303 6 -145 38 -261 65 -239 15 12 16
11 4 -4 -15 -19 -3 -51 27 -76 13 -11 13 -12 1 -7 -12 5 -12 4 1 -7 9 -7 16
-17 16 -22 0 -29 172 -206 200 -206 6 0 16 -7 23 -15 17 -20 98 -60 173 -86
114 -39 349 -37 446 3 14 6 28 12 31 13 34 9 57 21 68 36 7 10 19 16 27 13 8
-4 15 -1 15 5 0 6 3 10 8 9 12 -4 72 32 72 43 0 6 -4 7 -10 4 -6 -3 -7 1 -3
10 3 10 8 13 12 6 9 -14 83 39 77 55 -3 9 1 11 12 7 9 -3 14 -3 10 2 -4 4 7
19 23 33 19 16 29 32 26 43 -3 10 0 16 7 13 10 -4 51 50 44 59 -2 2 3 11 10
20 8 9 10 22 6 28 -4 7 -3 9 3 6 11 -7 50 97 61 163 19 120 -2 371 -31 353 -6
-3 -7 -1 -3 6 10 16 -13 83 -26 75 -6 -4 -8 -2 -4 4 9 16 -15 62 -33 63 -10 0
-12 2 -3 6 14 5 -33 76 -77 115 -14 13 -20 16 -13 6 7 -9 9 -18 5 -20 -4 -3
-3 -4 3 -2 6 1 11 -4 11 -11 0 -10 -5 -11 -17 -5 -11 6 -16 19 -14 36 1 15 -4
33 -12 41 -8 8 -14 11 -14 7 0 -4 -12 7 -27 24 -37 40 -79 65 -94 56 -7 -4 -9
-3 -6 3 7 10 -20 28 -35 25 -5 -1 -8 2 -8 7 0 9 -88 47 -130 56 -14 2 -45 9
-70 14 -56 12 -201 12 -255 -1z m572 -163 c0 -8 -4 -12 -9 -9 -5 3 -6 10 -3
15 9 13 12 11 12 -6z m-909 -30 c-3 -3 -9 2 -12 12 -6 14 -5 15 5 6 7 -7 10
-15 7 -18z m39 19 c-3 -3 -12 -4 -19 -1 -8 3 -5 6 6 6 11 1 17 -2 13 -5z m843
2 c0 -2 -7 -7 -16 -10 -8 -3 -12 -2 -9 4 6 10 25 14 25 6z m-205 -46 c-3 -5
-12 -10 -18 -10 -7 0 -6 4 3 10 19 12 23 12 15 0z m-40 -10 c-3 -5 -1 -10 6
-10 7 0 10 -3 6 -6 -9 -9 -28 6 -22 17 4 5 8 9 11 9 3 0 2 -4 -1 -10z m-40
-11 c6 -4 34 -16 64 -26 52 -18 199 -134 200 -159 1 -17 37 -45 46 -37 4 5 4
2 0 -6 -6 -11 -4 -13 10 -7 15 5 16 4 6 -8 -9 -11 -8 -23 4 -53 26 -59 27 -70
30 -192 2 -116 -1 -131 -50 -224 -10 -19 -11 -26 -2 -21 6 4 -6 -12 -28 -35
-24 -25 -33 -41 -25 -41 10 -1 8 -4 -5 -12 -11 -6 -27 -18 -36 -27 -9 -9 -26
-23 -39 -31 -12 -8 -28 -21 -36 -27 -7 -7 -17 -13 -23 -13 -6 0 -11 -4 -11
-10 0 -5 -3 -9 -7 -8 -5 1 -31 -7 -60 -17 -35 -13 -48 -22 -40 -28 8 -6 7 -7
-4 -4 -9 3 -70 7 -135 8 -72 2 -128 8 -143 15 -18 10 -28 10 -38 2 -10 -8 -12
-7 -8 3 3 9 -6 19 -25 27 -16 7 -31 12 -34 10 -2 -2 -14 8 -26 22 -12 14 -19
18 -15 10 4 -8 -3 -4 -15 10 -12 14 -44 49 -71 78 -27 28 -46 52 -43 52 3 0
-3 13 -12 29 -10 17 -22 27 -27 24 -6 -3 -7 -1 -3 5 4 6 0 35 -9 64 -20 70
-20 219 2 289 9 30 16 57 15 62 -1 4 4 7 10 7 7 1 2 7 -12 15 l-25 15 28 -6
c17 -4 27 -2 27 6 0 6 11 26 25 44 14 18 22 36 17 41 -4 5 -2 5 4 2 11 -7 68
46 59 54 -3 3 7 16 22 30 25 22 26 22 9 2 -11 -13 -16 -23 -12 -23 10 0 69 41
77 53 3 5 9 8 13 8 17 -3 55 12 50 20 -3 5 1 7 8 4 7 -2 29 0 48 5 41 10 230
10 245 -1z m370 1 c-4 -6 -1 -19 6 -28 12 -16 12 -16 -5 0 -16 14 -15 38 0 38
3 0 2 -5 -1 -10z m-148 -85 c-9 -7 -13 -16 -9 -20 4 -5 1 -5 -7 0 -12 7 -11
10 2 20 9 7 13 16 9 20 -4 5 -1 5 7 0 12 -7 11 -10 -2 -20z m238 -1 c9 -15 12
-23 6 -20 -11 7 -35 46 -28 46 3 0 12 -12 22 -26z m-90 -592 c-3 -3 -11 0 -18
7 -9 10 -8 11 6 5 10 -3 15 -9 12 -12z m-961 -60 c3 -5 -1 -9 -9 -9 -8 0 -12
4 -9 9 3 4 7 8 9 8 2 0 6 -4 9 -8z m86 -87 c0 -2 -10 -9 -22 -15 -22 -11 -22
-10 -4 4 21 17 26 19 26 11z m933 -108 c4 3 7 4 7 1 0 -3 -8 -12 -17 -19 -10
-7 -15 -9 -11 -5 4 5 2 16 -5 25 -10 14 -10 14 4 4 9 -7 19 -10 22 -6z m-793
-46 c0 -6 -4 -12 -8 -15 -5 -3 -9 1 -9 9 0 8 4 15 9 15 4 0 8 -4 8 -9z m75
-11 c-3 -5 -12 -10 -18 -10 -7 0 -6 4 3 10 19 12 23 12 15 0z m639 -18 c3 -5
-1 -9 -9 -9 -8 0 -12 4 -9 9 3 4 7 8 9 8 2 0 6 -4 9 -8z m-904 -17 c0 -2 -6
-5 -13 -8 -8 -3 -14 1 -14 8 0 7 6 11 14 8 7 -3 13 -6 13 -8z m10 -19 c0 -2
-8 -10 -17 -17 -16 -13 -17 -12 -4 4 13 16 21 21 21 13z"/>
<path d="M9792 2243 c-23 -2 -41 -7 -38 -11 2 -4 -11 -7 -28 -8 -38 0 -146
-42 -146 -56 0 -5 -4 -7 -9 -4 -15 9 -133 -75 -127 -90 6 -15 -10 -28 -34 -29
-8 0 -14 -6 -12 -13 1 -8 -1 -11 -6 -8 -19 11 -100 -94 -87 -114 3 -5 0 -12
-6 -16 -8 -4 -9 -3 -5 4 4 7 3 12 -2 12 -15 0 -64 -108 -56 -121 4 -8 3 -9 -4
-5 -13 8 -38 -69 -53 -169 -16 -99 -3 -258 28 -335 3 -8 8 -23 9 -33 5 -25 42
-94 76 -145 26 -37 32 -41 46 -30 10 7 14 8 10 4 -4 -5 -2 -16 5 -25 11 -14
10 -14 -5 -2 -37 29 -16 -4 39 -61 32 -32 63 -56 71 -53 7 2 11 1 8 -4 -6 -9
8 -20 76 -65 44 -30 177 -79 194 -72 6 2 15 1 20 -4 15 -14 92 -20 98 -7 3 9
5 8 5 0 1 -7 8 -13 16 -13 13 0 15 20 15 120 l0 120 -28 0 c-15 0 -51 6 -80
14 -29 7 -52 9 -52 5 0 -5 5 -9 12 -9 6 0 8 -3 5 -7 -4 -3 -18 6 -32 21 -21
23 -28 26 -41 15 -8 -6 -17 -9 -21 -5 -3 3 0 6 7 6 20 0 -16 37 -43 44 -12 3
-46 35 -76 71 -42 49 -58 62 -68 54 -7 -6 -10 -16 -6 -22 4 -6 1 -7 -6 -3 -9
6 -8 13 5 28 16 16 16 21 4 28 -8 6 -11 10 -6 10 4 0 1 11 -7 24 -53 80 -67
276 -29 381 12 33 23 65 25 70 1 6 4 12 7 15 3 3 21 28 40 55 38 55 54 70 118
116 24 17 39 35 36 41 -4 7 -2 8 5 4 12 -8 81 13 81 24 0 20 240 17 297 -4 39
-14 43 -14 54 2 10 16 10 16 5 0 -6 -19 14 -38 43 -41 11 0 17 -5 15 -9 -5 -7
10 -12 29 -9 4 0 6 -3 5 -8 -2 -6 22 -34 53 -63 30 -29 57 -57 60 -63 2 -5 7
-9 10 -8 4 1 6 -5 5 -15 0 -9 5 -16 12 -14 8 1 11 -2 7 -8 -3 -6 4 -36 17 -68
22 -55 23 -68 28 -467 l5 -410 113 0 113 0 -1 398 c-1 392 -5 454 -36 552 -21
66 -65 146 -75 139 -5 -3 -6 1 -4 8 3 8 -8 27 -25 43 -16 16 -30 34 -30 41 0
19 -122 125 -138 119 -7 -2 -10 -1 -7 5 8 13 -41 43 -59 37 -10 -4 -13 -1 -10
7 6 16 -79 55 -112 51 -13 -1 -21 1 -19 6 16 24 -168 44 -303 32z m535 -178
c0 -8 -4 -12 -9 -9 -5 3 -6 10 -3 15 9 13 12 11 12 -6z m-620 -40 c0 -8 -4
-12 -9 -9 -5 3 -6 10 -3 15 9 13 12 11 12 -6z m304 -8 c-10 -9 -11 -8 -5 6 3
10 9 15 12 12 3 -3 0 -11 -7 -18z m-504 -164 c0 -8 -4 -10 -12 -3 -7 5 -16 6
-20 2 -5 -4 -5 -2 -2 4 9 15 34 13 34 -3z m1018 -13 c-3 -4 1 -11 7 -13 8 -4
7 -6 -4 -6 -9 -1 -20 4 -23 9 -3 6 -1 10 5 10 6 0 8 5 4 12 -4 7 -3 8 5 4 6
-4 9 -11 6 -16z m-1052 -18 c-10 -10 -20 -17 -22 -16 -6 5 20 34 30 34 5 0 1
-8 -8 -18z m923 -152 c0 -12 -4 -16 -9 -11 -5 5 -6 14 -3 20 10 15 12 14 12
-9z m-1123 -413 c3 -8 2 -20 -3 -26 -5 -9 -7 -4 -7 13 0 29 2 32 10 13z m163
-277 c0 -12 -4 -16 -9 -11 -5 5 -6 14 -3 20 10 15 12 14 12 -9z m52 -12 c-3
-7 5 -21 16 -31 21 -18 20 -18 -6 -2 -16 10 -25 22 -21 31 6 17 16 19 11 2z"/>
<path d="M12655 2229 c-22 -5 -47 -12 -55 -16 -8 -3 -23 -8 -32 -9 -31 -6
-108 -46 -108 -56 0 -5 -4 -7 -9 -3 -5 3 -21 -6 -34 -19 -14 -14 -27 -23 -30
-20 -3 3 -31 -20 -63 -51 -33 -31 -54 -54 -48 -51 6 3 11 -1 11 -8 0 -8 -8
-11 -17 -9 -12 3 -29 -11 -52 -44 -48 -65 -102 -173 -86 -173 7 0 4 -5 -5 -12
-38 -28 -47 -131 -47 -554 l0 -401 103 1 102 1 6 410 c3 226 8 417 11 425 3 8
10 28 17 45 7 16 10 38 7 48 -2 11 -2 16 1 13 3 -3 25 20 48 52 23 31 54 68
68 81 15 13 24 29 20 35 -3 6 -3 8 2 4 5 -5 23 4 42 18 54 41 134 73 216 86
l77 12 0 103 0 103 -52 -1 c-29 -1 -71 -5 -93 -10z m-155 -283 c-10 -13 -40
-12 -40 1 0 3 7 3 15 0 8 -4 17 -2 20 3 4 6 9 10 12 10 3 0 0 -6 -7 -14z
m-124 -103 c-10 -11 -19 -7 -22 10 -2 15 0 16 12 6 8 -6 12 -14 10 -16z m-176
-3 c0 -5 -5 -10 -11 -10 -5 0 -7 5 -4 10 3 6 8 10 11 10 2 0 4 -4 4 -10z m20
-14 c0 -2 -8 -10 -17 -17 -16 -13 -17 -12 -4 4 13 16 21 21 21 13z m135 -5 c3
-5 2 -12 -3 -15 -5 -3 -9 1 -9 9 0 17 3 19 12 6z"/>
<path d="M9420 2059 c0 -5 5 -7 10 -4 6 3 10 8 10 11 0 2 -4 4 -10 4 -5 0 -10
-5 -10 -11z"/>
</g>
</svg>
